<svg width="24" height="24" viewBox="0 0 24 24" xmlns="http://www.w3.org/2000/svg"><path d="m23 14.05-.664.237c-.22.079-.908.31-1.031.355-.705.251-.91.402-1.064.77a.916.916 0 0 0-.074.53c.026.166.096.367.23.66.078.17.446.91.53 1.086l.303.637-2.902 2.903-.637-.303c-.186-.088-.912-.449-1.077-.525-.293-.135-.495-.205-.661-.233a.917.917 0 0 0-.539.073c-.37.154-.522.362-.776 1.076-.042.118-.27.799-.349 1.02l-.236.664H9.947l-.236-.665c-.079-.221-.306-.897-.346-1.01-.255-.72-.408-.93-.779-1.084a.914.914 0 0 0-.53-.075c-.166.027-.367.096-.66.23-.168.078-.904.444-1.087.53l-.638.304-2.899-2.904.302-.636c.088-.184.451-.916.528-1.083.134-.293.204-.495.231-.661a.914.914 0 0 0-.073-.532c-.154-.37-.366-.525-1.085-.78-.114-.04-.79-.267-1.01-.345L1 14.052V9.948l.664-.236c.222-.08.898-.307 1.009-.347.72-.255.933-.41 1.085-.778a.924.924 0 0 0 .07-.557c-.03-.168-.102-.37-.237-.661-.073-.158-.426-.865-.518-1.058l-.303-.637L5.671 2.77l.638.302c.188.09.916.45 1.081.527.294.135.495.205.662.232.177.029.331.01.534-.073.37-.154.523-.363.778-1.08.041-.118.269-.795.347-1.014L9.947 1h4.105l.236.665c.078.22.304.891.344 1.005.256.722.411.935.788 1.091.197.082.347.1.516.075.164-.025.364-.094.658-.229.169-.077.91-.446 1.096-.534l.637-.303 2.9 2.903-.301.637c-.09.19-.45.916-.526 1.08-.135.293-.206.495-.233.661a.913.913 0 0 0 .072.535c.153.369.366.524 1.09.78.113.04.786.266 1.006.344l.665.237v4.104Zm-2-2.683a44.093 44.093 0 0 1-.338-.116c-1.205-.426-1.854-.897-2.27-1.9a2.908 2.908 0 0 1-.199-1.624c.062-.375.187-.731.39-1.173.04-.086.13-.273.227-.47l-.893-.895c-.205.1-.4.195-.49.236-.447.205-.808.33-1.189.388a2.89 2.89 0 0 1-1.585-.205c-1.006-.418-1.48-1.067-1.906-2.27A43.32 43.32 0 0 1 12.631 3h-1.263c-.054.157-.1.293-.12.347-.424 1.199-.897 1.845-1.896 2.26a2.905 2.905 0 0 1-1.62.2c-.377-.062-.734-.186-1.177-.39-.086-.04-.274-.131-.473-.228l-.893.893c.093.189.179.364.216.444.202.435.327.785.393 1.153.1.563.041 1.111-.192 1.674-.414 1-1.063 1.471-2.265 1.898a45.31 45.31 0 0 1-.341.116v1.265l.343.117c1.2.425 1.848.897 2.264 1.899a2.91 2.91 0 0 1 .2 1.616c-.06.377-.184.734-.388 1.177-.04.087-.132.276-.23.476l.893.894c.201-.099.392-.191.48-.232.444-.204.802-.328 1.18-.388a2.906 2.906 0 0 1 1.61.203c1.001.414 1.473 1.062 1.898 2.263l.117.343h1.266l.12-.353c.424-1.194.896-1.84 1.895-2.255a2.912 2.912 0 0 1 1.63-.198c.375.062.732.187 1.173.39.085.039.27.13.467.226l.893-.894c-.098-.2-.191-.392-.232-.48-.204-.444-.328-.804-.388-1.182a2.91 2.91 0 0 1 .203-1.609c.413-.993 1.054-1.465 2.239-1.887l.367-.126v-1.265ZM7 12a5 5 0 1 1 10.001.001A5 5 0 0 1 7 12Zm2 0a3 3 0 1 0 6.001-.001A3 3 0 0 0 9 12Z" fill="#000" fill-rule="evenodd"/></svg>